<?xml version="1.0" encoding="UTF-8"?> <svg xmlns="http://www.w3.org/2000/svg" width="198" height="61" viewBox="0 0 198 61" fill="none"><path fill-rule="evenodd" clip-rule="evenodd" d="M78.1559 55.2186L75.5403 50.0291H76.4451L78.5719 54.3606L80.6935 50.0291H81.5411L78.9463 55.2186V58.609H78.1611V55.2186H78.1559Z" fill="white"></path><path fill-rule="evenodd" clip-rule="evenodd" d="M80.9795 55.5254C80.9795 53.6586 82.3263 52.291 84.1099 52.291C85.8935 52.291 87.2403 53.6482 87.2403 55.5254C87.2403 57.4026 85.8935 58.739 84.1099 58.739C82.3263 58.739 80.9795 57.361 80.9795 55.5254ZM84.1099 58.011C85.4671 58.011 86.4863 56.9658 86.4863 55.5254C86.4863 54.085 85.4775 53.0138 84.1099 53.0138C82.7423 53.0138 81.7387 54.0642 81.7387 55.5254C81.7387 56.9866 82.7423 58.011 84.1099 58.011Z" fill="white"></path><path fill-rule="evenodd" clip-rule="evenodd" d="M90.4747 58.7287C89.0083 58.7287 88.1399 57.7771 88.1399 56.1651V52.4211H88.8887V56.1443C88.8887 57.3611 89.4503 58.0215 90.4747 58.0215C91.4991 58.0215 92.0659 57.3611 92.0659 56.1443V52.4211H92.8095V56.1651C92.8095 57.7771 91.9515 58.7287 90.4747 58.7287Z" fill="white"></path><path fill-rule="evenodd" clip-rule="evenodd" d="M96.2829 52.4106H96.9381V53.1126H96.3557C95.5705 53.1126 95.2481 53.4038 95.2481 54.241V58.609H94.4993V54.241C94.4993 52.993 95.0661 52.4106 96.2829 52.4106Z" fill="white"></path><path fill-rule="evenodd" clip-rule="evenodd" d="M100.89 52.4106H101.587V53.5494C102.019 52.785 102.934 52.291 103.958 52.291C105.659 52.291 107.037 53.6326 107.037 55.5254C107.037 57.4182 105.659 58.7286 103.958 58.7286C102.96 58.7286 102.065 58.271 101.623 57.5482C101.634 57.9798 101.649 58.4426 101.649 58.8794V60.9282H100.901V52.421L100.89 52.4106ZM103.875 58.011C105.263 58.011 106.267 56.9658 106.267 55.5254C106.267 54.085 105.263 53.0138 103.875 53.0138C102.627 53.0138 101.577 53.8926 101.577 55.5254C101.577 57.1582 102.627 58.011 103.875 58.011Z" fill="white"></path><path fill-rule="evenodd" clip-rule="evenodd" d="M108.061 55.5254C108.061 53.6326 109.418 52.291 111.129 52.291C112.169 52.291 113.084 52.8006 113.511 53.5754V52.4106H114.202V58.609H113.511V57.4546C113.084 58.2294 112.169 58.7234 111.129 58.7234C109.429 58.7234 108.061 57.3818 108.061 55.515V55.5254ZM111.207 58.011C112.465 58.011 113.516 57.1426 113.516 55.5254C113.516 53.9082 112.465 53.0138 111.207 53.0138C109.834 53.0138 108.825 54.0642 108.825 55.5254C108.825 56.9866 109.834 58.011 111.207 58.011Z" fill="white"></path><path fill-rule="evenodd" clip-rule="evenodd" d="M117.535 52.4106H118.19V53.1126H117.608C116.823 53.1126 116.5 53.4038 116.5 54.241V58.609H115.752V54.241C115.752 52.993 116.319 52.4106 117.535 52.4106Z" fill="white"></path><path fill-rule="evenodd" clip-rule="evenodd" d="M119.745 53.123H118.976V52.421H119.745V50.679L120.489 50.3618V52.4314H121.305V53.1334H120.489V58.6298H119.745V53.1334V53.123Z" fill="white"></path><path fill-rule="evenodd" clip-rule="evenodd" d="M124.769 52.3014C126.235 52.3014 127.103 53.253 127.103 54.8702V58.609H126.355V54.8858C126.355 53.669 125.793 53.0138 124.769 53.0138C123.744 53.0138 123.177 53.669 123.177 54.8858V58.609H122.434V54.8702C122.434 53.253 123.292 52.3014 124.769 52.3014Z" fill="white"></path><path fill-rule="evenodd" clip-rule="evenodd" d="M128.455 55.5358C128.455 53.7418 129.745 52.3222 131.518 52.3222C133.042 52.3222 134.394 53.357 134.446 55.515H129.194V55.5514C129.194 56.9398 130.151 58.0266 131.612 58.0266C132.61 58.0266 133.421 57.5222 133.874 56.6902L134.44 57.049C133.967 57.8706 133.042 58.713 131.591 58.713C129.719 58.713 128.461 57.3194 128.461 55.5358H128.455ZM133.661 54.8858C133.432 53.5754 132.506 52.993 131.503 52.993C130.317 52.993 129.459 53.8094 129.241 54.8858H133.661Z" fill="white"></path><path fill-rule="evenodd" clip-rule="evenodd" d="M137.587 52.4106H138.242V53.1126H137.659C136.874 53.1126 136.552 53.4038 136.552 54.241V58.609H135.803V54.241C135.803 52.993 136.37 52.4106 137.587 52.4106Z" fill="white"></path><path fill-rule="evenodd" clip-rule="evenodd" d="M144.118 49.5767H144.32V50.2995H144.201C143.509 50.2995 143.192 50.5647 143.192 51.2667V52.4211H144.024V53.1231H143.192V58.6195H142.443V53.1231H141.7V52.4211H142.443V51.2043C142.443 50.1799 143.01 49.5871 144.128 49.5871L144.118 49.5767Z" fill="white"></path><path fill-rule="evenodd" clip-rule="evenodd" d="M144.794 55.5254C144.794 53.6586 146.141 52.291 147.924 52.291C149.703 52.291 151.054 53.6482 151.054 55.5254C151.054 57.4026 149.703 58.739 147.924 58.739C146.141 58.739 144.794 57.361 144.794 55.5254ZM147.924 58.011C149.281 58.011 150.295 56.9658 150.295 55.5254C150.295 54.085 149.292 53.0138 147.924 53.0138C146.557 53.0138 145.548 54.0642 145.548 55.5254C145.548 56.9866 146.557 58.011 147.924 58.011Z" fill="white"></path><path fill-rule="evenodd" clip-rule="evenodd" d="M154.211 52.4106H154.866V53.1126H154.284C153.498 53.1126 153.176 53.4038 153.176 54.241V58.609H152.427V54.241C152.427 52.993 152.994 52.4106 154.211 52.4106Z" fill="white"></path><path fill-rule="evenodd" clip-rule="evenodd" d="M158.491 58.609V57.9278C158.959 57.9746 159.395 58.0006 159.65 58.0006C160.576 58.0006 161.039 57.6886 161.039 57.0334C161.039 56.5602 160.779 56.2482 160.123 55.8322L159.697 55.5618C158.839 55.0366 158.449 54.527 158.449 53.8614C158.449 52.9514 159.182 52.3586 160.373 52.3586C160.623 52.3586 160.971 52.3846 161.299 52.4106V53.0502C160.945 53.0138 160.68 53.0034 160.482 53.0034C159.635 53.0034 159.182 53.3206 159.182 53.8614C159.182 54.2722 159.458 54.5946 160.134 55.0002L160.576 55.2862C161.423 55.8218 161.787 56.321 161.787 57.023C161.787 58.0578 161.002 58.6818 159.661 58.6818C159.385 58.6818 158.933 58.6454 158.48 58.609H158.491Z" fill="white"></path><path fill-rule="evenodd" clip-rule="evenodd" d="M165.37 58.7287C163.898 58.7287 163.03 57.7771 163.03 56.1651V52.4211H163.779V56.1443C163.779 57.3611 164.346 58.0215 165.37 58.0215C166.394 58.0215 166.956 57.3611 166.956 56.1443V52.4211H167.705V56.1651C167.705 57.7771 166.847 58.7287 165.37 58.7287Z" fill="white"></path><path fill-rule="evenodd" clip-rule="evenodd" d="M169.052 55.5254C169.052 53.6586 170.367 52.3586 172.203 52.3586C172.479 52.3586 172.843 52.395 173.201 52.4522V53.1542C172.806 53.097 172.499 53.071 172.276 53.071C170.809 53.071 169.821 54.0746 169.821 55.5254C169.821 56.9762 170.809 57.9642 172.276 57.9642C172.499 57.9642 172.806 57.9382 173.201 57.881V58.583C172.843 58.6558 172.479 58.6818 172.203 58.6818C170.378 58.6818 169.052 57.3714 169.052 55.515V55.5254Z" fill="white"></path><path fill-rule="evenodd" clip-rule="evenodd" d="M173.976 55.5254C173.976 53.6586 175.286 52.3586 177.127 52.3586C177.403 52.3586 177.762 52.395 178.126 52.4522V53.1542C177.725 53.097 177.424 53.071 177.2 53.071C175.734 53.071 174.746 54.0746 174.746 55.5254C174.746 56.9762 175.734 57.9642 177.2 57.9642C177.424 57.9642 177.725 57.9382 178.126 57.881V58.583C177.762 58.6558 177.403 58.6818 177.127 58.6818C175.297 58.6818 173.976 57.3714 173.976 55.515V55.5254Z" fill="white"></path><path fill-rule="evenodd" clip-rule="evenodd" d="M178.89 55.5358C178.89 53.7418 180.185 52.3222 181.958 52.3222C183.481 52.3222 184.828 53.357 184.885 55.515H179.628V55.5514C179.628 56.9398 180.59 58.0266 182.046 58.0266C183.045 58.0266 183.861 57.5222 184.313 56.6902L184.875 57.049C184.402 57.8706 183.481 58.713 182.031 58.713C180.153 58.713 178.9 57.3194 178.9 55.5358H178.89ZM184.1 54.8858C183.866 53.5754 182.946 52.993 181.937 52.993C180.757 52.993 179.899 53.8094 179.675 54.8858H184.1Z" fill="white"></path><path fill-rule="evenodd" clip-rule="evenodd" d="M185.967 58.609V57.9278C186.435 57.9746 186.872 58.0006 187.127 58.0006C188.052 58.0006 188.515 57.6886 188.515 57.0334C188.515 56.5602 188.255 56.2482 187.6 55.8322L187.174 55.5618C186.316 55.0366 185.931 54.527 185.931 53.8614C185.931 52.9514 186.659 52.3586 187.85 52.3586C188.099 52.3586 188.448 52.3846 188.775 52.4106V53.0502C188.422 53.0138 188.157 53.0034 187.959 53.0034C187.111 53.0034 186.659 53.3206 186.659 53.8614C186.659 54.2722 186.934 54.5946 187.61 55.0002L188.052 55.2862C188.9 55.8218 189.264 56.321 189.264 57.023C189.264 58.0578 188.479 58.6818 187.137 58.6818C186.862 58.6818 186.409 58.6454 185.957 58.609H185.967Z" fill="white"></path><path fill-rule="evenodd" clip-rule="evenodd" d="M190.252 58.609V57.9278C190.72 57.9746 191.157 58.0006 191.417 58.0006C192.337 58.0006 192.8 57.6886 192.8 57.0334C192.8 56.5602 192.54 56.2482 191.885 55.8322L191.458 55.5618C190.6 55.0366 190.216 54.527 190.216 53.8614C190.216 52.9514 190.944 52.3586 192.134 52.3586C192.384 52.3586 192.738 52.3846 193.06 52.4106V53.0502C192.706 53.0138 192.441 53.0034 192.244 53.0034C191.396 53.0034 190.944 53.3206 190.944 53.8614C190.944 54.2722 191.219 54.5946 191.895 55.0002L192.337 55.2862C193.19 55.8218 193.549 56.321 193.549 57.023C193.549 58.0578 192.764 58.6818 191.422 58.6818C191.146 58.6818 190.694 58.6454 190.242 58.609H190.252Z" fill="white"></path><path fill-rule="evenodd" clip-rule="evenodd" d="M75.5403 9.94754C75.5403 4.16515 79.7679 0.109161 85.3475 0.109161C88.2699 0.109161 90.8698 1.14396 92.8094 3.35915L90.3811 5.68875C89.1903 4.21716 87.3599 3.31236 85.3475 3.31236C81.6243 3.31236 78.9931 6.07355 78.9931 9.97354C78.9931 13.8735 81.7023 16.6035 85.3215 16.6035C88.4987 16.6035 90.7711 14.5911 91.0726 11.5699H84.6767V8.60595H94.6138V9.92674C94.6138 15.9223 90.8179 19.7911 85.3215 19.7911C79.8251 19.7911 75.5403 15.7351 75.5403 9.95274V9.94754Z" fill="white"></path><path fill-rule="evenodd" clip-rule="evenodd" d="M101.8 5.76157H103.454V8.65276H102.112C100.947 8.65276 100.485 9.11556 100.485 10.3064V19.4219H97.2815V10.3896C97.2815 7.18636 98.8779 5.77196 101.8 5.77196V5.76157Z" fill="white"></path><path fill-rule="evenodd" clip-rule="evenodd" d="M104.587 12.6047C104.587 8.44995 107.739 5.45996 111.737 5.45996C115.736 5.45996 118.882 8.44995 118.882 12.6047C118.882 16.7647 115.736 19.7807 111.737 19.7807C107.739 19.7807 104.587 16.7647 104.587 12.6047ZM111.737 16.7647C113.979 16.7647 115.689 15.0643 115.689 12.6047C115.689 10.1504 113.979 8.44996 111.737 8.44996C109.491 8.44996 107.785 10.1504 107.785 12.6047C107.785 15.0643 109.491 16.7647 111.737 16.7647Z" fill="white"></path><path fill-rule="evenodd" clip-rule="evenodd" d="M119.792 5.76157H123.141L125.933 15.1631L128.923 5.76157H131.887L134.81 14.9239L137.654 5.76157H140.93L136.385 19.4219H133.442L130.348 10.2596L127.254 19.4219H124.129L119.792 5.76157Z" fill="white"></path><path fill-rule="evenodd" clip-rule="evenodd" d="M144.31 8.65274H142.656V5.76154H144.31V1.08155L147.513 -4.57764e-05V5.76154H149.198V8.65274H147.513L147.487 19.4219H144.284L144.31 8.65274Z" fill="white"></path><path fill-rule="evenodd" clip-rule="evenodd" d="M151.366 -4.57764e-05H154.57V3.90515C154.57 4.93995 154.544 5.94874 154.518 6.86914C155.292 5.96434 156.473 5.44955 157.955 5.44955C160.971 5.44955 162.728 7.56074 162.728 11.2319V19.4115H159.52V11.4347C159.52 9.47433 158.672 8.43954 157.066 8.43954C155.459 8.43954 154.564 9.47433 154.564 11.4347V19.4115H151.356V-4.57764e-05H151.366Z" fill="white"></path><path fill-rule="evenodd" clip-rule="evenodd" d="M164.871 9.94754C164.871 4.16515 169.182 0.109161 174.678 0.109161C180.174 0.109161 184.485 4.16515 184.485 9.94754C184.485 15.7299 180.174 19.7807 174.678 19.7807C169.182 19.7807 164.871 15.7299 164.871 9.94754ZM174.678 16.5567C178.214 16.5567 181.006 13.8735 181.006 9.94754C181.006 6.02155 178.214 3.31236 174.678 3.31236C171.142 3.31236 168.35 6.03195 168.35 9.94754C168.35 13.8631 171.116 16.5567 174.678 16.5567Z" fill="white"></path><path fill-rule="evenodd" clip-rule="evenodd" d="M192.322 5.45996C195.858 5.45996 198 7.65436 198 11.2943V19.4323H194.797V11.4035C194.797 9.49515 193.892 8.46036 192.322 8.46036C190.751 8.46036 189.847 9.49515 189.847 11.4035V19.4323H186.638V11.2943C186.638 7.65436 188.755 5.45996 192.322 5.45996Z" fill="white"></path><path fill-rule="evenodd" clip-rule="evenodd" d="M13.7124 0C6.15159 0 0 6.15679 0 13.7228C0 21.2888 6.15159 27.4403 13.7124 27.4403C21.2784 27.4403 27.4299 21.2888 27.4299 13.7228C27.4299 6.15679 21.2784 0 13.7124 0ZM23.088 13.7124C23.088 18.8864 18.8864 23.088 13.7124 23.088C8.54358 23.088 4.34199 18.8864 4.34199 13.7124C4.34199 8.54358 8.55398 4.34719 13.7124 4.34719C18.876 4.34719 23.088 8.55398 23.088 13.7228V13.7124Z" fill="#32F9BB"></path><path fill-rule="evenodd" clip-rule="evenodd" d="M58.7236 -4.57764e-05H55.5516L35.7708 19.9783V-4.57764e-05H31.4392V27.3571H58.7236V23.0359H38.8284L58.7236 3.16675V-4.57764e-05Z" fill="white"></path><path fill-rule="evenodd" clip-rule="evenodd" d="M0.0727539 35.8435H19.9679L0.0727539 55.7127V58.8795H3.23955L23.0255 38.9011V58.8795H27.3571V31.5223H0.0727539V35.8435Z" fill="white"></path><path fill-rule="evenodd" clip-rule="evenodd" d="M54.392 52.0831L35.3808 31.5223H31.4392V58.8795H35.7708V38.3083L54.7872 58.8795H58.7236V31.5223H54.392V52.0831Z" fill="white"></path><path fill-rule="evenodd" clip-rule="evenodd" d="M75.7691 23.0411H79.1491L85.1655 33.4723L91.1559 23.0411H94.4943V41.995H91.2859V28.7767L86.1691 37.7363H84.0995L78.9411 28.7507V41.995H75.7639V23.0411H75.7691Z" fill="white"></path><path fill-rule="evenodd" clip-rule="evenodd" d="M96.9746 35.1779C96.9746 30.9659 100.053 28.0747 103.766 28.0747C105.549 28.0747 107.203 28.7507 108.181 29.9883L108.207 28.3347H111.051V41.9951H108.207L108.181 40.3415C107.203 41.5791 105.549 42.2551 103.766 42.2551C100.043 42.2551 96.9746 39.3327 96.9746 35.1779ZM104.182 39.3067C106.35 39.3067 108.077 37.7831 108.077 35.1779C108.077 32.5727 106.35 31.0231 104.182 31.0231C101.883 31.0231 100.183 32.7027 100.183 35.1779C100.183 37.6531 101.889 39.3067 104.182 39.3067Z" fill="white"></path><path fill-rule="evenodd" clip-rule="evenodd" d="M118.404 28.3347H120.057V31.2259H118.716C117.556 31.2259 117.093 31.6887 117.093 32.8795V41.9951H113.89V32.9627C113.89 29.7595 115.487 28.3451 118.404 28.3451V28.3347Z" fill="white"></path><path fill-rule="evenodd" clip-rule="evenodd" d="M125.533 35.9527V41.9951H122.33V23.0723H125.533V33.7583L129.875 28.3347H133.515L128.481 34.7619L133.775 41.9951H129.922L125.533 35.9527Z" fill="white"></path><path fill-rule="evenodd" clip-rule="evenodd" d="M134.108 35.2039C134.108 31.0231 137.098 28.0591 141.05 28.0591C144.664 28.0591 147.924 30.5135 147.607 35.8799H137.098C137.358 38.0535 138.98 39.5459 141.31 39.5459C143.015 39.5459 144.461 38.7451 145.464 37.2735L147.581 38.9583C146.239 40.8979 144.118 42.3071 141.226 42.3071C136.968 42.3071 134.108 39.3171 134.108 35.2039ZM144.586 33.5815C144.201 31.6679 142.833 30.6903 141.024 30.6903C139.11 30.6903 137.67 31.8811 137.202 33.5815H144.586Z" fill="white"></path><path fill-rule="evenodd" clip-rule="evenodd" d="M151.091 31.2259H149.437V28.3347H151.091V24.1487L154.294 23.0723V28.3347H155.974V31.2259H154.294L154.268 41.9951H151.065L151.091 31.2259Z" fill="white"></path><path fill-rule="evenodd" clip-rule="evenodd" d="M158.61 23.0359H161.813V26.1819H158.61V23.0359ZM158.61 28.3347H161.813V41.995H158.61V28.3347Z" fill="white"></path><path fill-rule="evenodd" clip-rule="evenodd" d="M170.716 28.0227C174.252 28.0227 176.394 30.2171 176.394 33.8571V41.9951H173.191V33.9663C173.191 32.0579 172.286 31.0231 170.716 31.0231C169.145 31.0231 168.241 32.0579 168.241 33.9663V41.9951H165.037V33.8571C165.037 30.2171 167.154 28.0227 170.716 28.0227Z" fill="white"></path><path fill-rule="evenodd" clip-rule="evenodd" d="M182.41 44.2415H185.458C188.302 44.2415 189.898 43.1755 189.929 40.6743V40.0815C189.025 41.1631 187.553 41.7663 185.77 41.7663C181.974 41.7663 178.958 39.0779 178.958 34.9751C178.958 30.8723 182.005 28.0851 185.718 28.0851C187.527 28.0851 189.181 28.7611 190.158 29.9987L190.184 28.3451H193.029V40.3987C193.029 44.9435 190.111 47.1378 185.39 47.1378H182.426V44.2467L182.41 44.2415ZM186.133 38.9167C188.328 38.9167 190.054 37.4711 190.054 34.9959C190.054 32.5207 188.328 31.0231 186.102 31.0231C183.877 31.0231 182.15 32.6195 182.15 34.9751C182.15 37.3307 183.804 38.9271 186.123 38.9271L186.133 38.9167Z" fill="white"></path></svg> 